<mxfile host="app.diagrams.net" modified="2024-04-28T13:51:28.185Z" agent="Mozilla/5.0 (Macintosh; Intel Mac OS X 10_15_7) AppleWebKit/537.36 (KHTML, like Gecko) Chrome/123.0.0.0 Safari/537.36" etag="YQosaQaeePLShSYBmeBR" version="24.2.7" type="github">
  <diagram id="C5RBs43oDa-KdzZeNtuy" name="Page-1">
    <mxGraphModel dx="887" dy="520" grid="1" gridSize="10" guides="1" tooltips="1" connect="1" arrows="1" fold="1" page="1" pageScale="1" pageWidth="827" pageHeight="1169" math="0" shadow="0">
      <root>
        <mxCell id="WIyWlLk6GJQsqaUBKTNV-0" />
        <mxCell id="WIyWlLk6GJQsqaUBKTNV-1" parent="WIyWlLk6GJQsqaUBKTNV-0" />
        <mxCell id="7CRha96ar0CpfUCvY2kd-0" value="DataStorage" style="swimlane;fontStyle=1;align=center;verticalAlign=top;childLayout=stackLayout;horizontal=1;startSize=26;horizontalStack=0;resizeParent=1;resizeParentMax=0;resizeLast=0;collapsible=0;marginBottom=0;" vertex="1" parent="WIyWlLk6GJQsqaUBKTNV-1">
          <mxGeometry x="137" y="20" width="343" height="112" as="geometry" />
        </mxCell>
        <mxCell id="7CRha96ar0CpfUCvY2kd-1" style="line;strokeWidth=1;fillColor=none;align=left;verticalAlign=middle;spacingTop=-1;spacingLeft=3;spacingRight=3;rotatable=0;labelPosition=right;points=[];portConstraint=eastwest;strokeColor=inherit;" vertex="1" parent="7CRha96ar0CpfUCvY2kd-0">
          <mxGeometry y="26" width="343" height="8" as="geometry" />
        </mxCell>
        <mxCell id="7CRha96ar0CpfUCvY2kd-2" value="+storeData(data: PatientData): void" style="text;strokeColor=none;fillColor=none;align=left;verticalAlign=top;spacingLeft=4;spacingRight=4;overflow=hidden;rotatable=0;points=[[0,0.5],[1,0.5]];portConstraint=eastwest;" vertex="1" parent="7CRha96ar0CpfUCvY2kd-0">
          <mxGeometry y="34" width="343" height="26" as="geometry" />
        </mxCell>
        <mxCell id="7CRha96ar0CpfUCvY2kd-3" value="+retrieveData(patientID: string): PatientData" style="text;strokeColor=none;fillColor=none;align=left;verticalAlign=top;spacingLeft=4;spacingRight=4;overflow=hidden;rotatable=0;points=[[0,0.5],[1,0.5]];portConstraint=eastwest;" vertex="1" parent="7CRha96ar0CpfUCvY2kd-0">
          <mxGeometry y="60" width="343" height="26" as="geometry" />
        </mxCell>
        <mxCell id="7CRha96ar0CpfUCvY2kd-4" value="+deleteData(patientID: string): void" style="text;strokeColor=none;fillColor=none;align=left;verticalAlign=top;spacingLeft=4;spacingRight=4;overflow=hidden;rotatable=0;points=[[0,0.5],[1,0.5]];portConstraint=eastwest;" vertex="1" parent="7CRha96ar0CpfUCvY2kd-0">
          <mxGeometry y="86" width="343" height="26" as="geometry" />
        </mxCell>
        <mxCell id="7CRha96ar0CpfUCvY2kd-5" value="PatientData" style="swimlane;fontStyle=1;align=center;verticalAlign=top;childLayout=stackLayout;horizontal=1;startSize=26;horizontalStack=0;resizeParent=1;resizeParentMax=0;resizeLast=0;collapsible=0;marginBottom=0;" vertex="1" parent="WIyWlLk6GJQsqaUBKTNV-1">
          <mxGeometry x="70" y="195" width="176" height="117" as="geometry" />
        </mxCell>
        <mxCell id="7CRha96ar0CpfUCvY2kd-6" value="-patientID: string" style="text;strokeColor=none;fillColor=none;align=left;verticalAlign=top;spacingLeft=4;spacingRight=4;overflow=hidden;rotatable=0;points=[[0,0.5],[1,0.5]];portConstraint=eastwest;" vertex="1" parent="7CRha96ar0CpfUCvY2kd-5">
          <mxGeometry y="26" width="176" height="26" as="geometry" />
        </mxCell>
        <mxCell id="7CRha96ar0CpfUCvY2kd-7" value="-vitalSigns: array" style="text;strokeColor=none;fillColor=none;align=left;verticalAlign=top;spacingLeft=4;spacingRight=4;overflow=hidden;rotatable=0;points=[[0,0.5],[1,0.5]];portConstraint=eastwest;" vertex="1" parent="7CRha96ar0CpfUCvY2kd-5">
          <mxGeometry y="52" width="176" height="26" as="geometry" />
        </mxCell>
        <mxCell id="7CRha96ar0CpfUCvY2kd-8" value="-medicalHistory: array" style="text;strokeColor=none;fillColor=none;align=left;verticalAlign=top;spacingLeft=4;spacingRight=4;overflow=hidden;rotatable=0;points=[[0,0.5],[1,0.5]];portConstraint=eastwest;" vertex="1" parent="7CRha96ar0CpfUCvY2kd-5">
          <mxGeometry y="78" width="176" height="26" as="geometry" />
        </mxCell>
        <mxCell id="7CRha96ar0CpfUCvY2kd-9" style="line;strokeWidth=1;fillColor=none;align=left;verticalAlign=middle;spacingTop=-1;spacingLeft=3;spacingRight=3;rotatable=0;labelPosition=right;points=[];portConstraint=eastwest;strokeColor=inherit;" vertex="1" parent="7CRha96ar0CpfUCvY2kd-5">
          <mxGeometry y="104" width="176" height="13" as="geometry" />
        </mxCell>
        <mxCell id="7CRha96ar0CpfUCvY2kd-10" value="DataRetriever" style="swimlane;fontStyle=1;align=center;verticalAlign=top;childLayout=stackLayout;horizontal=1;startSize=28.8;horizontalStack=0;resizeParent=1;resizeParentMax=0;resizeLast=0;collapsible=0;marginBottom=0;" vertex="1" parent="WIyWlLk6GJQsqaUBKTNV-1">
          <mxGeometry x="296" y="218" width="326" height="65.8" as="geometry" />
        </mxCell>
        <mxCell id="7CRha96ar0CpfUCvY2kd-11" style="line;strokeWidth=1;fillColor=none;align=left;verticalAlign=middle;spacingTop=-1;spacingLeft=3;spacingRight=3;rotatable=0;labelPosition=right;points=[];portConstraint=eastwest;strokeColor=inherit;" vertex="1" parent="7CRha96ar0CpfUCvY2kd-10">
          <mxGeometry y="28.8" width="326" height="8" as="geometry" />
        </mxCell>
        <mxCell id="7CRha96ar0CpfUCvY2kd-12" value="+queryData(patientID: string): PatientData" style="text;strokeColor=none;fillColor=none;align=left;verticalAlign=top;spacingLeft=4;spacingRight=4;overflow=hidden;rotatable=0;points=[[0,0.5],[1,0.5]];portConstraint=eastwest;" vertex="1" parent="7CRha96ar0CpfUCvY2kd-10">
          <mxGeometry y="36.8" width="326" height="29" as="geometry" />
        </mxCell>
        <mxCell id="7CRha96ar0CpfUCvY2kd-13" value="" style="curved=1;startArrow=diamondThin;startSize=14;startFill=1;endArrow=none;exitX=0.18618707049146194;exitY=1;entryX=0.49940074573863635;entryY=0;rounded=0;" edge="1" parent="WIyWlLk6GJQsqaUBKTNV-1" source="7CRha96ar0CpfUCvY2kd-0" target="7CRha96ar0CpfUCvY2kd-5">
          <mxGeometry relative="1" as="geometry">
            <Array as="points">
              <mxPoint x="158" y="170" />
            </Array>
          </mxGeometry>
        </mxCell>
        <mxCell id="7CRha96ar0CpfUCvY2kd-14" value="1" style="edgeLabel;resizable=0;labelBackgroundColor=none;fontSize=12;align=right;verticalAlign=top;" vertex="1" parent="7CRha96ar0CpfUCvY2kd-13">
          <mxGeometry x="-1" relative="1" as="geometry" />
        </mxCell>
        <mxCell id="7CRha96ar0CpfUCvY2kd-15" value="1" style="edgeLabel;resizable=0;labelBackgroundColor=none;fontSize=12;align=left;verticalAlign=bottom;" vertex="1" parent="7CRha96ar0CpfUCvY2kd-13">
          <mxGeometry x="1" relative="1" as="geometry" />
        </mxCell>
        <mxCell id="7CRha96ar0CpfUCvY2kd-16" value="" style="curved=1;startArrow=diamondThin;startSize=14;startFill=1;endArrow=none;exitX=0.8125374193044564;exitY=1;entryX=0.49898149923312884;entryY=-0.00625;rounded=0;" edge="1" parent="WIyWlLk6GJQsqaUBKTNV-1" source="7CRha96ar0CpfUCvY2kd-0" target="7CRha96ar0CpfUCvY2kd-10">
          <mxGeometry relative="1" as="geometry">
            <Array as="points">
              <mxPoint x="459" y="170" />
            </Array>
          </mxGeometry>
        </mxCell>
        <mxCell id="7CRha96ar0CpfUCvY2kd-17" value="1" style="edgeLabel;resizable=0;labelBackgroundColor=none;fontSize=12;align=right;verticalAlign=top;" vertex="1" parent="7CRha96ar0CpfUCvY2kd-16">
          <mxGeometry x="-1" relative="1" as="geometry" />
        </mxCell>
        <mxCell id="7CRha96ar0CpfUCvY2kd-18" value="1" style="edgeLabel;resizable=0;labelBackgroundColor=none;fontSize=12;align=left;verticalAlign=bottom;" vertex="1" parent="7CRha96ar0CpfUCvY2kd-16">
          <mxGeometry x="1" relative="1" as="geometry" />
        </mxCell>
      </root>
    </mxGraphModel>
  </diagram>
</mxfile>
